<svg height="511pt" viewBox="-87 0 511 511.99974" width="511pt" xmlns="http://www.w3.org/2000/svg"><path d="m117.25 6.605469-113.433594 151.546875c-8.132812 10.867187-.378906 26.355468 13.195313 26.355468h129.914062v-167.550781c.003907-16.71875-20.363281-22.792969-29.675781-10.351562zm0 0"/><path d="m50.394531 432.816406c0 43.660156 35.523438 79.183594 79.195313 79.183594 10.851562 0 17.339844-8.007812 17.339844-16.492188v-278.039062h-96.535157zm0 0"/><path d="m288.066406 79.1875c0-43.664062-35.519531-79.18359375-79.195312-79.18359375-10.847656 0-17.335938 8.00390575-17.335938 16.48828175v278.039062h96.53125zm0 0"/><path d="m321.453125 327.492188h-129.917969v167.542968c0 16.683594 20.34375 22.824219 29.675782 10.359375l113.4375-151.546875c8.132812-10.863281.378906-26.355468-13.195313-26.355468zm0 0"/></svg>